<?xml version="1.0" encoding="iso-8859-1"?>
<!-- Uploaded to: SVG Repo, www.svgrepo.com, Generator: SVG Repo Mixer Tools -->
<svg height="800px" width="800px" version="1.1" id="Layer_1" xmlns="http://www.w3.org/2000/svg" xmlns:xlink="http://www.w3.org/1999/xlink" 
	 viewBox="0 0 511.999 511.999" xml:space="preserve">
<path style="fill:#A67C52;" d="M129.424,189.172H67.146c-7.682,0-14.631-3.108-19.66-8.137s-8.137-11.978-8.137-19.66
	c0-15.352,12.446-27.797,27.797-27.797h81.977h136.46h160.302c7.67,0,14.619,3.108,19.66,8.137
	c5.029,5.029,8.137,11.978,8.137,19.66c0,15.352-12.446,27.797-27.797,27.797h-273.5"/>
<path style="fill:#936841;" d="M115.159,161.375c0-15.352,12.446-27.797,27.797-27.797H67.146
	c-15.352,0-27.797,12.446-27.797,27.797c0,7.682,3.108,14.631,8.137,19.66c5.029,5.029,11.978,8.137,19.66,8.137h62.279h13.532
	c-7.682,0-14.632-3.108-19.66-8.137C118.267,176.006,115.159,169.057,115.159,161.375z"/>
<path style="fill:#A67C52;" d="M448.271,189.071c13.747,28.164,21.442,59.815,21.442,93.26
	c0,117.747-95.446,213.193-213.193,213.193S43.327,400.078,43.327,282.331c0-33.445,7.695-65.096,21.442-93.26"/>
<path style="fill:#936841;" d="M98.922,282.331c0-33.445,7.695-65.096,21.442-93.26H64.769
	c-13.747,28.164-21.442,59.815-21.442,93.26c0,117.747,95.446,213.193,213.193,213.193c9.422,0,18.699-0.618,27.797-1.803
	C179.706,480.099,98.922,390.656,98.922,282.331z"/>
<g>
	<path style="fill:#A67C52;" d="M88.638,413.736l-18.984,66.096c-3.446,11.998,5.561,23.955,18.043,23.955l0,0
		c5.798,0,11.272-2.68,14.827-7.26l31.056-39.995"/>
	<path style="fill:#A67C52;" d="M424.404,413.736l18.984,66.096c3.446,11.998-5.561,23.955-18.043,23.955l0,0
		c-5.798,0-11.272-2.68-14.827-7.26l-31.056-39.995"/>
</g>
<path style="fill:#FDBB00;" d="M427.864,133.577c0-20.056-16.258-36.313-36.313-36.313c-0.703,0-1.4,0.025-2.094,0.064
	c0.353-2.03,0.546-4.115,0.546-6.246c0-20.056-16.258-36.313-36.313-36.313c-3.348,0-6.587,0.462-9.666,1.312
	C340.905,39.195,326.114,26.4,308.325,26.4c-6.924,0-13.396,1.939-18.902,5.303c-5.783-12.381-18.34-20.963-32.908-20.963
	c-14.568,0-27.125,8.583-32.911,20.963c-5.506-3.363-11.977-5.303-18.902-5.303c-17.789,0-32.58,12.794-35.698,29.681
	c-3.079-0.849-6.318-1.312-9.666-1.312c-20.056,0-36.313,16.258-36.313,36.313c0,2.13,0.193,4.215,0.546,6.246
	c-0.694-0.039-1.39-0.064-2.094-0.064c-20.056,0-36.313,16.258-36.313,36.313"/>
<path style="fill:#EDAB06;" d="M185.919,97.264c0.703,0,1.4,0.025,2.092,0.064c-0.353-2.03-0.546-4.114-0.546-6.246
	c0-20.055,16.258-36.313,36.313-36.313c3.348,0,6.588,0.462,9.666,1.312c3.118-16.886,17.909-29.681,35.698-29.681
	c6.924,0,13.396,1.939,18.901,5.303c0.215-0.46,0.457-0.902,0.691-1.352c-6.047-11.642-18.192-19.611-32.22-19.611
	c-14.568,0-27.125,8.582-32.911,20.963c-5.506-3.363-11.977-5.303-18.901-5.303c-17.789,0-32.58,12.794-35.698,29.681
	c-3.079-0.849-6.318-1.312-9.666-1.312c-20.055,0-36.313,16.258-36.313,36.313c0,2.13,0.195,4.215,0.546,6.246
	c-0.694-0.039-1.39-0.064-2.092-0.064c-20.056,0-36.313,16.258-36.313,36.313h64.439C149.605,113.522,165.863,97.264,185.919,97.264
	z"/>
<path d="M63.257,372.781c4.82-2.039,7.076-7.599,5.036-12.419c-10.62-25.11-16.005-51.789-16.005-79.294
	c0-29.262,6.032-57.382,17.934-83.683h58.686c5.233,0,9.476-4.243,9.476-9.476s-4.243-9.476-9.476-9.476H66.63
	c-4.9,0-9.503-1.904-12.96-5.361c-3.457-3.457-5.361-8.06-5.361-12.96c0-10.102,8.219-18.321,18.321-18.321h378.738
	c4.891,0,9.497,1.907,12.96,5.362c3.457,3.457,5.361,8.059,5.361,12.959c0,10.102-8.219,18.321-18.321,18.321h-273.5
	c-5.233,0-9.476,4.243-9.476,9.476s4.243,9.476,9.476,9.476h273.5c20.554,0,37.274-16.721,37.274-37.274
	c0-9.963-3.875-19.324-10.922-26.368c-7.048-7.033-16.407-10.905-26.352-10.905h-9.541c-3.845-18.195-18.516-32.442-36.938-35.639
	c-1.363-24.033-21.347-43.168-45.715-43.168c-0.991,0-1.981,0.033-2.971,0.097c-6.9-16.929-23.495-28.467-42.395-28.467
	c-5.22,0-10.368,0.887-15.235,2.603C284.025,6.944,270.488,0,256.001,0c-14.486,0-28.025,6.944-36.577,18.263
	c-4.867-1.716-10.015-2.603-15.235-2.603c-18.9,0-35.493,11.538-42.393,28.467c-0.988-0.064-1.979-0.097-2.971-0.097
	c-24.368,0-44.352,19.136-45.715,43.168c-18.422,3.197-33.093,17.445-36.938,35.639H66.63c-20.554,0-37.274,16.721-37.274,37.274
	c0,9.963,3.875,19.324,10.913,26.361c3.168,3.168,6.808,5.687,10.76,7.509c-11.738,27.493-17.694,56.731-17.694,87.086
	c0,30.056,5.888,59.22,17.501,86.677c1.529,3.616,5.039,5.788,8.732,5.788C60.8,373.531,62.051,373.29,63.257,372.781z
	 M120.965,105.477c0.524,0,1.042,0.02,1.559,0.049c2.877,0.162,5.687-1.001,7.61-3.158c1.922-2.158,2.756-5.076,2.262-7.923
	c-0.269-1.554-0.407-3.111-0.407-4.626c0-14.798,12.039-26.837,26.837-26.837c2.407,0,4.811,0.326,7.148,0.97
	c2.562,0.708,5.298,0.305,7.55-1.104c2.25-1.409,3.806-3.698,4.288-6.31c2.346-12.705,13.44-21.926,26.378-21.926
	c4.942,0,9.769,1.353,13.962,3.914c2.301,1.405,5.092,1.765,7.675,0.987c2.581-0.778,4.71-2.619,5.851-5.062
	c4.397-9.416,13.945-15.5,24.323-15.5c10.377,0,19.926,6.084,24.324,15.498c1.141,2.442,3.27,4.283,5.851,5.062
	c2.578,0.777,5.37,0.421,7.673-0.986c4.192-2.561,9.021-3.914,13.963-3.914c12.938,0,24.033,9.221,26.38,21.926
	c0.481,2.612,2.037,4.9,4.288,6.31c2.25,1.409,4.99,1.811,7.549,1.104c2.336-0.644,4.741-0.97,7.148-0.97
	c14.797,0,26.836,12.039,26.836,26.837c0,1.514-0.136,3.072-0.406,4.628c-0.494,2.848,0.34,5.764,2.262,7.922
	c1.924,2.158,4.741,3.321,7.61,3.156c0.514-0.029,1.034-0.049,1.557-0.049c11.459,0,21.236,7.232,25.077,17.361H95.888
	C99.73,112.709,109.506,105.477,120.965,105.477z"/>
<path d="M470.018,219.39c-1.448-5.031-6.702-7.932-11.728-6.486c-5.029,1.448-7.932,6.699-6.484,11.728
	c5.252,18.246,7.916,37.233,7.916,56.435c0,112.33-91.387,203.716-203.716,203.716c-69.966,0-134.224-35.265-171.892-94.334
	c-2.815-4.412-8.672-5.709-13.085-2.895c-4.412,2.814-5.709,8.673-2.895,13.085c3.029,4.75,6.233,9.34,9.567,13.803l-17.666,61.509
	c-2.473,8.606-0.8,17.642,4.587,24.794s13.611,11.253,22.565,11.253c8.79,0,16.922-3.981,22.312-10.924l25.566-32.926
	c35.414,22.926,77.149,35.586,120.942,35.586c44.514,0,86.011-13.138,120.837-35.727l25.676,33.066
	c5.391,6.943,13.523,10.924,22.312,10.924c8.953,0,17.179-4.101,22.564-11.253c5.388-7.151,7.059-16.189,4.588-24.794
	l-17.698-61.619c27.866-37.183,44.39-83.331,44.39-133.267C478.675,260.092,475.762,239.341,470.018,219.39z M94.527,489.453
	c-1.774,2.284-4.45,3.595-7.344,3.595c-2.947,0-5.653-1.349-7.426-3.703c-1.773-2.354-2.322-5.328-1.509-8.16l14.098-49.089
	c8.425,9.157,17.53,17.548,27.238,25.086L94.527,489.453z M433.766,481.184c0.815,2.832,0.264,5.806-1.509,8.16
	c-1.771,2.354-4.479,3.703-7.426,3.703c-2.85,0-5.595-1.344-7.344-3.595l-25.183-32.432c9.787-7.599,18.922-15.994,27.315-25.088
	L433.766,481.184z"/>
<path d="M195.338,69.174c-20.688,0-37.516,16.83-37.516,37.516c0,5.233,4.243,9.476,9.476,9.476s9.476-4.243,9.476-9.476
	c0-10.236,8.328-18.564,18.564-18.564c10.236,0,18.564,8.328,18.564,18.564c0,5.233,4.243,9.476,9.476,9.476
	s9.476-4.243,9.476-9.476C232.856,86.004,216.026,69.174,195.338,69.174z"/>
<path d="M292.08,51.784c-20.686,0-37.516,16.83-37.516,37.516c0,5.233,4.242,9.476,9.476,9.476c5.235,0,9.476-4.243,9.476-9.476
	c0-10.236,8.328-18.564,18.564-18.564s18.564,8.328,18.564,18.564c0,5.233,4.242,9.476,9.476,9.476c5.235,0,9.476-4.243,9.476-9.476
	C329.597,68.614,312.767,51.784,292.08,51.784z"/>
</svg>