<?xml version="1.0" ?><!-- Uploaded to: SVG Repo, www.svgrepo.com, Generator: SVG Repo Mixer Tools -->
<svg width="800px" height="800px" viewBox="0 0 64 64" data-name="Layer 1" id="Layer_1" xmlns="http://www.w3.org/2000/svg"><defs><style>.cls-1{fill:#ba9bc9;}.cls-2{fill:#65c8d0;}.cls-3{fill:#838bc5;}.cls-4{fill:#f4ecce;}</style></defs><polygon class="cls-1" points="7.5 27.79 36.5 56.79 36.5 46.21 7.5 17.21 7.5 27.79"/><polygon class="cls-2" points="55.79 35.5 26.79 6.5 16.21 6.5 45.21 35.5 55.79 35.5"/><polygon class="cls-2" points="18.79 16.5 8.21 16.5 37.21 45.5 47.79 45.5 18.79 16.5"/><path class="cls-1" d="M19.35,15.65,44.5,40.79V36.21l-29-29V15.5H19A.47.47,0,0,1,19.35,15.65Z"/><path class="cls-3" d="M45.5,41.79l3.85,3.86a.49.49,0,0,1,.15.35v1.5h7v-11h-11Z"/><rect class="cls-3" height="11" width="11" x="37.5" y="46.5"/><path class="cls-4" d="M57.71,35.29l-30-30A1,1,0,0,0,27,5H15a1,1,0,0,0-1,1v9H7a1,1,0,0,0-1,1V28a1,1,0,0,0,.29.71l30,30A1,1,0,0,0,37,59H49a1,1,0,0,0,1-1V49h7a1,1,0,0,0,1-1V36A1,1,0,0,0,57.71,35.29ZM54.59,35H45.41l-28-28h9.18ZM9.41,17h9.18l28,28H37.41ZM16,8.41l28,28v3.18L19.71,15.29A1,1,0,0,0,19,15H16Zm-8,10,28,28v9.18l-28-28ZM48,57H38V47H48Zm8-10H50V46a1,1,0,0,0-.29-.71L46,41.59V37H56Z"/></svg>