<?xml version="1.0" encoding="utf-8"?>

<!DOCTYPE svg PUBLIC "-//W3C//DTD SVG 1.1//EN" "http://www.w3.org/Graphics/SVG/1.1/DTD/svg11.dtd">
<!-- Uploaded to: SVG Repo, www.svgrepo.com, Generator: SVG Repo Mixer Tools -->
<svg version="1.1" id="_x32_" xmlns="http://www.w3.org/2000/svg" xmlns:xlink="http://www.w3.org/1999/xlink" 
	 width="800px" height="800px" viewBox="0 0 512 512"  xml:space="preserve">
<style type="text/css">
<![CDATA[
	.st0{fill:#000000;}
]]>
</style>
<g>
	<path class="st0" d="M328.094,308.469c-9.953,0-18.031,8.078-18.031,18.031c0,9.938,8.078,18.016,18.031,18.016
		s18.016-8.078,18.016-18.016C346.109,316.547,338.047,308.469,328.094,308.469z"/>
	<polygon class="st0" points="256,168.813 266.203,168.813 256,155.75 245.797,168.813 	"/>
	<path class="st0" d="M278.594,156.781c7.109,0,12.875-5.781,12.875-12.875v-2.922c0-7.109-5.766-12.875-12.875-12.875
		s-12.875,5.766-12.875,12.875v2.922C265.719,151,271.484,156.781,278.594,156.781z"/>
	<path class="st0" d="M454.406,249.688c31.797,0,57.594-25.781,57.594-57.594S486.203,134.5,454.406,134.5
		c-31.813,0-48-12.766-70.406-31.969c-54.406-35.219-57.594-92.25-128-92.25s-73.594,57.031-128,92.25
		C105.594,121.734,89.406,134.5,57.594,134.5S0,160.281,0,192.094s25.781,57.594,57.594,57.594h5.844L15.703,423.953l53.391-8.016
		L90.469,472l26.344-31.984c34.969,37.891,85.016,61.703,140.531,61.703c54.75,0,104.188-23.188,139.078-60.188L421.531,472
		l21.375-56.063l53.391,8.016l-47.734-174.266H454.406z M256,86L256,86c34.984,0,52.969,28.094,52.969,57.344
		c0,10.969-2.391,20-7.781,25.281c-7.109,6.969-15.484,6.266-16.313,7c0,0,0,7.406,0,12.297v1.922c0,1.641-1.344,2.969-2.969,2.969
		h-7.109c-1.625,0-2.953-1.328-2.953-2.969v-9.016c-0.688-0.391-1.328,0.078-1.891-0.234c0,0.031,0.016,0.063,0.016,0.078v9.172
		c0,1.641-1.328,2.969-2.969,2.969h-7.094c-1.641,0-2.969-1.328-2.969-2.969v-9.172c0-0.297,0.063-0.578,0.141-0.859H256h-1.078
		c0.078,0.281,0.141,0.563,0.141,0.859v9.172c0,1.641-1.328,2.969-2.969,2.969H245c-1.641,0-2.969-1.328-2.969-2.969v-9.172
		c0-0.016,0.016-0.047,0.016-0.078c-0.563,0.313-1.203-0.156-1.891,0.234v9.016c0,1.641-1.328,2.969-2.953,2.969h-7.109
		c-1.625,0-2.969-1.328-2.969-2.969v-1.922c0-4.891,0-12.297,0-12.297c-0.828-0.734-9.203-0.031-16.313-7
		c-5.391-5.281-7.781-14.313-7.781-25.281C203.031,114.094,221.016,86,256,86z M268.984,249.688l-161.938,76.969
		c-0.578-5.313-0.891-10.719-0.891-16.188c0-21.625,4.625-42.156,12.844-60.781H268.984z M257.344,461.656
		c-70.469,0-129.641-48.5-146.344-113.828l0.531,1.109l27.406-13.031c3.719,16.063,14.891,39.766,48.563,37.313
		c38.891-2.828,55.594-43.656,53.484-85.797l79.391-37.734h75.281c8.219,18.625,12.875,39.156,12.875,60.781
		C408.531,393.844,340.703,461.656,257.344,461.656z"/>
	<path class="st0" d="M233.406,156.781c7.109,0,12.875-5.781,12.875-12.875v-2.922c0-7.109-5.766-12.875-12.875-12.875
		s-12.875,5.766-12.875,12.875v2.922C220.531,151,226.297,156.781,233.406,156.781z"/>
</g>
</svg>