<?xml version="1.0" encoding="utf-8"?>

<!DOCTYPE svg PUBLIC "-//W3C//DTD SVG 1.1//EN" "http://www.w3.org/Graphics/SVG/1.1/DTD/svg11.dtd">
<!-- Uploaded to: SVG Repo, www.svgrepo.com, Generator: SVG Repo Mixer Tools -->
<svg height="800px" width="800px" version="1.1" id="_x32_" xmlns="http://www.w3.org/2000/svg" xmlns:xlink="http://www.w3.org/1999/xlink" 
	 viewBox="0 0 512 512"  xml:space="preserve">
<style type="text/css">
	.st0{fill:#000000;}
</style>
<g>
	<path class="st0" d="M420.618,414.835c-0.396-0.596-0.858-1.114-1.266-1.692c6-13.138,10.509-23.386,11.13-25.863
		c2.057-8.258-75.897-20.611-99.264-18.724c-3.827-1.618-6.627-3.097-8.124-4.479c-1.138-1.022-1.752-1.88-2.27-3.128
		c-0.505-1.241-0.87-3.012-0.876-5.678c0-6.055,0-13.193,0-21.974c18.396-10.357,40.035-27.311,45.512-47.502
		c5.112-18.865,2.185-34.066-2.507-48.568c0.128-0.438,0.256-0.815,0.383-1.266c1.516-5.312,2.215-9.925,2.215-14.032
		c0.006-4.728-0.968-8.842-2.757-12.177c-2.671-5.027-6.986-7.832-10.497-9.116c3.268-0.718,6.213-2.319,8.477-4.589
		c3.128-3.121,5.075-7.448,5.05-12.207v-14.653c0.024-4.735-1.923-9.085-5.05-12.183c-3.104-3.128-7.448-5.075-12.207-5.075H347.8
		c-0.547-3.505-1.326-6.974-2.233-10.418c3.944-2.015,8.964-4.777,14.361-8.264c5.903-3.822,12.196-8.465,17.818-13.905
		c5.617-5.447,10.607-11.696,13.704-18.889c3.603-8.404,5.324-16.296,5.324-23.66c0.013-8.045-2.087-15.402-5.72-21.78
		c-3.634-6.39-8.726-11.823-14.678-16.454c-7.686-5.97-13.066-11.611-16.582-16.723c-3.53-5.118-5.197-9.651-5.672-13.594
		c-0.17-1.278-0.286-2.331-0.797-3.773c-0.28-0.718-0.664-1.625-1.668-2.641c-0.95-1.035-2.848-1.887-4.424-1.826
		c-2.306,0.079-3.402,0.925-4.241,1.466c-0.84,0.603-1.467,1.199-2.149,1.875l3.962,3.967l-3.968-3.961
		c-1.29,1.345-1.917,2.568-2.647,4.09c-2.008,4.472-3.718,11.477-3.748,20.306c-0.006,10.753,2.738,24.11,11.556,37.102
		c1.923,2.842,2.428,4.856,2.428,6.171c-0.036,1.521-0.523,2.702-2.214,4.394c-2.495,2.483-7.784,5.014-14.106,6.73
		c-5.222,1.449-11.1,2.422-16.729,3.031c-22.297-27.494-49.231-45.963-59.357-45.963c-10.138,0-37.072,18.463-59.356,45.938
		c-7.911-0.84-16.339-2.446-22.68-4.966c-3.633-1.418-6.518-3.14-8.197-4.771c-1.686-1.692-2.173-2.879-2.209-4.4
		c-0.006-1.321,0.498-3.329,2.422-6.165c8.818-12.992,11.568-26.362,11.556-37.114c0-5.86-0.797-10.972-1.892-15.012
		c-0.548-2.02-1.168-3.773-1.856-5.282c-0.73-1.528-1.357-2.751-2.654-4.102h-0.006c-0.676-0.67-1.296-1.266-2.124-1.862
		c-0.846-0.548-1.936-1.393-4.254-1.472c-1.577-0.061-3.475,0.803-4.431,1.831c-1.466,1.558-1.685,2.721-1.977,3.658
		c-0.244,0.949-0.36,1.807-0.475,2.756c-0.475,3.938-2.142,8.471-5.672,13.589c-3.523,5.112-8.903,10.753-16.582,16.723
		c-5.952,4.625-11.045,10.065-14.678,16.454c-3.633,6.378-5.732,13.735-5.72,21.78c0,7.364,1.722,15.256,5.325,23.66
		c3.091,7.193,8.087,13.442,13.704,18.889c10.753,10.357,23.946,17.97,32.192,22.187c-0.907,3.438-1.68,6.901-2.227,10.4h-0.84
		c-4.722,0.024-9.055,1.966-12.134,5.075c-3.128,3.098-5.075,7.448-5.075,12.183v14.653c0,4.759,1.947,9.086,5.075,12.207
		c2.252,2.258,5.191,3.876,8.434,4.594c-1.162,0.444-2.386,1.016-3.633,1.777c-2.519,1.558-5.068,3.992-6.846,7.333
		c-1.789,3.334-2.769,7.448-2.763,12.182c0.006,4.108,0.706,8.72,2.222,14.027c0.128,0.45,0.256,0.852,0.383,1.296
		c-4.686,14.489-7.607,29.685-2.495,48.537c5.477,20.191,27.11,37.133,45.5,47.496c0,8.788,0,15.926,0,21.98
		c-0.006,2.55-0.407,4.278-0.986,5.605c-0.871,1.947-2.197,3.408-4.887,5.105c-1.393,0.87-3.158,1.729-5.197,2.587
		c-23.143-1.972-101.54,10.43-99.465,18.712c0.615,2.471,5.106,12.694,11.094,25.796c-2.319,3.268-4.46,6.742-6.238,10.6
		c-4.394,9.524-6.913,20.837-6.907,34.084c0,3.073,0.134,6.25,0.414,9.536c0.201,2.3,1.078,4.175,2.106,5.72
		c1.96,2.872,4.558,5.014,7.814,7.211c5.702,3.773,13.6,7.461,23.715,11.081c30.268,10.796,80.381,20.678,142.482,20.691
		c50.454,0,93.039-6.548,123.435-14.775c15.207-4.126,27.348-8.636,36.123-13.144c4.393-2.276,7.948-4.515,10.765-6.974
		c1.412-1.241,2.647-2.544,3.688-4.089c1.023-1.546,1.905-3.42,2.106-5.72c0.274-3.286,0.408-6.45,0.408-9.517
		C432.551,440.132,428.017,425.905,420.618,414.835z M102.719,471.891c-3.731-1.917-6.481-3.743-8.002-5.093
		c-0.651-0.56-1.016-0.992-1.199-1.242c-0.213-2.702-0.335-5.312-0.335-7.795c0.018-12.256,2.434-21.846,6.341-29.702
		c8.848,19.041,18.81,40.06,24.676,52.395C115.286,477.569,108.007,474.617,102.719,471.891z M342.135,90.62
		c4.491-1.783,8.58-3.998,11.854-7.126c3.256-3.067,5.69-7.473,5.653-12.475c-0.006-4.205-1.582-8.386-4.363-12.469
		c-7.394-10.911-9.608-21.901-9.62-30.804c0-2.665,0.219-5.112,0.541-7.302c1.168,2.574,2.568,5.16,4.357,7.759
		c4.357,6.31,10.564,12.706,18.932,19.218c5.051,3.919,9.074,8.3,11.812,13.132c2.732,4.838,4.248,10.108,4.26,16.242
		c0,5.605-1.308,11.97-4.418,19.242c-2.251,5.276-6.28,10.498-11.196,15.244c-7.351,7.132-16.595,13.144-23.952,17.283
		c-1.393,0.784-2.634,1.436-3.864,2.087c-4.637-12.524-11.331-24.384-18.986-35.222C329.684,94.411,336.293,92.914,342.135,90.62z
		 M256.009,58.854c4.904,0,8.884,3.98,8.884,8.885c0,4.911-3.98,8.891-8.884,8.891c-4.917,0-8.897-3.98-8.897-8.891
		C247.112,62.834,251.092,58.854,256.009,58.854z M256.009,97.551c4.904,0,8.884,3.98,8.884,8.885c0,4.923-3.98,8.89-8.884,8.89
		c-4.917,0-8.897-3.968-8.897-8.89C247.112,101.531,251.092,97.551,256.009,97.551z M256.009,131.021
		c4.904,0,8.884,3.986,8.884,8.89c0,4.911-3.98,8.891-8.884,8.891c-4.917,0-8.897-3.98-8.897-8.891
		C247.112,135.006,251.092,131.021,256.009,131.021z M165.928,8.571l0.006,0.006h-0.006V8.571z M156.112,122.471
		c-10.375-6.919-21.079-16.51-25.242-26.435c-3.116-7.272-4.418-13.636-4.418-19.242c0.012-6.134,1.528-11.404,4.26-16.242
		c2.738-4.832,6.76-9.213,11.805-13.132c8.373-6.512,14.58-12.907,18.932-19.218c1.777-2.574,3.171-5.136,4.333-7.692
		c0.322,2.191,0.566,4.576,0.56,7.223c-0.006,8.909-2.227,19.905-9.627,30.822c-2.769,4.077-4.351,8.252-4.351,12.457
		c-0.037,5.002,2.392,9.414,5.647,12.481c4.924,4.662,11.629,7.4,18.895,9.457c3.883,1.071,7.923,1.874,11.958,2.501
		c-7.65,10.838-14.343,22.698-18.968,35.222C165.958,128.598,161.102,125.836,156.112,122.471z M163.439,191.68l-1.619-0.171
		c-1.497-0.31-2.848-1.059-3.919-2.13c-1.424-1.43-2.288-3.347-2.3-5.538v-14.653c0.012-2.178,0.876-4.108,2.3-5.538
		c1.193-1.186,2.739-1.99,4.466-2.215l0.84-0.073v0.073l185.36-0.085c2.178,0.006,4.138,0.876,5.55,2.3
		c1.436,1.43,2.3,3.36,2.3,5.538v14.653c0,2.191-0.864,4.108-2.3,5.538c-1.18,1.187-2.751,2.015-4.527,2.234l-1.022,0.067H163.439z
		 M182.742,258.539c-11.794-17.173-4.138-39.251,1.728-55.87l0.548-1.57h141.971l0.548,1.57c5.866,16.619,13.522,38.697,1.728,55.87
		c-12.292,17.872-42.232-2.824-73.268-1.88C224.986,255.715,195.046,276.412,182.742,258.539z M256.003,428.825l-63.166-50.886
		c1.606-0.961,3.158-2.008,4.606-3.25c2.55-2.203,4.759-5.008,6.202-8.337c1.448-3.323,2.124-7.059,2.118-11.082
		c0-4.406,0-9.371,0-15.134c3.894,1.679,7.284,2.902,9.742,3.53c14.653,3.76,30.159,22.844,40.492,22.844
		c10.357,0,25.863-19.084,40.504-22.844c2.459-0.627,5.848-1.85,9.743-3.53c0,5.763,0,10.728,0,15.134
		c-0.006,3.907,0.541,7.51,1.862,10.796c1.96,4.978,5.739,8.696,9.926,11.233c0.371,0.226,0.803,0.39,1.181,0.602L256.003,428.825z
		 M418.482,465.538l-0.59,0.7c-1.01,1.022-3.049,2.556-5.915,4.193c-5.386,3.109-13.65,6.596-24.171,9.998
		c5.86-12.317,15.797-33.281,24.627-52.298c0.237,0.469,0.511,0.889,0.73,1.363c3.499,7.571,5.653,16.76,5.653,28.285
		C418.816,460.25,418.695,462.849,418.482,465.538z"/>
</g>
</svg>